<svg xmlns="http://www.w3.org/2000/svg" viewBox="0 0 30.81 24.14"><defs><style>.cls-1{isolation:isolate;}.cls-2{fill:#e9501e;mix-blend-mode:hard-light;}</style></defs><title>Takhi_Cortado_Naranjo</title><g class="cls-1"><g id="Capa_2" data-name="Capa 2"><g id="Capa_1-2" data-name="Capa 1"><path class="cls-2" d="M29.54,21.58,19.06,21.5V17a1.73,1.73,0,0,0-1.73-1.75L3.59,15.19a1.72,1.72,0,0,1-1.71-1.74l.05-6.77L2,2.56V2A2,2,0,0,0,0,0H0V22.61A1.94,1.94,0,0,0,1.84,24l27.69.19a1.29,1.29,0,0,0,1.28-1.27h0A1.29,1.29,0,0,0,29.54,21.58ZM12,22.21A2.34,2.34,0,0,1,9.7,19.87v0h0A2.3,2.3,0,0,1,12,17.53h0a2.34,2.34,0,0,1,0,4.68Z"/></g></g></g></svg>